# MagicaVoxel @ Ephtracy

# group
o 

# material
mtllib DirectionChanger.mtl
usemtl palette

# normals
vn -1 0 0
vn 1 0 0
vn 0 0 1
vn 0 0 -1
vn 0 -1 0
vn 0 1 0

# texcoords
vt 0.822266 0.5
vt 0.841797 0.5

# verts
v -0.7 0 0.1
v -0.7 0 -0.2
v -0.7 0.1 0.1
v -0.7 0.1 -0.2
v -0.6 0 0.2
v -0.6 0 0.1
v -0.6 0 -0.2
v -0.6 0 -0.3
v -0.6 0.1 0.2
v -0.6 0.1 0.1
v -0.6 0.1 0
v -0.6 0.1 -0.1
v -0.6 0.1 -0.2
v -0.6 0.1 -0.3
v -0.6 0.2 0
v -0.6 0.2 -0.1
v -0.5 0 0.3
v -0.5 0 0.2
v -0.5 0 -0.3
v -0.5 0 -0.4
v -0.5 0.1 0.3
v -0.5 0.1 0.2
v -0.5 0.1 0.1
v -0.5 0.1 0
v -0.5 0.1 -0.1
v -0.5 0.1 -0.2
v -0.5 0.1 -0.3
v -0.5 0.1 -0.4
v -0.5 0.2 0.1
v -0.5 0.2 0
v -0.5 0.2 -0.1
v -0.5 0.2 -0.2
v -0.4 0 0.4
v -0.4 0 0.3
v -0.4 0 -0.4
v -0.4 0 -0.5
v -0.4 0.1 0.4
v -0.4 0.1 0.3
v -0.4 0.1 0.2
v -0.4 0.1 0.1
v -0.4 0.1 -0.2
v -0.4 0.1 -0.3
v -0.4 0.1 -0.4
v -0.4 0.1 -0.5
v -0.4 0.2 0.2
v -0.4 0.2 0.1
v -0.4 0.2 -0.2
v -0.4 0.2 -0.3
v -0.3 0 0.5
v -0.3 0 0.4
v -0.3 0 -0.5
v -0.3 0 -0.6
v -0.3 0.1 0.5
v -0.3 0.1 0.4
v -0.3 0.1 -0.5
v -0.3 0.1 -0.6
v -0.2 0 0.6
v -0.2 0 0.5
v -0.2 0 -0.6
v -0.2 0 -0.7
v -0.2 0.1 0.6
v -0.2 0.1 0.5
v -0.2 0.1 0.4
v -0.2 0.1 0.3
v -0.2 0.1 -0.4
v -0.2 0.1 -0.5
v -0.2 0.1 -0.6
v -0.2 0.1 -0.7
v -0.2 0.2 0.4
v -0.2 0.2 0.3
v -0.2 0.2 -0.4
v -0.2 0.2 -0.5
v -0.1 0 0.7
v -0.1 0 0.6
v -0.1 0 -0.7
v -0.1 0 -0.8
v -0.1 0.1 0.7
v -0.1 0.1 0.6
v -0.1 0.1 0.5
v -0.1 0.1 0.4
v -0.1 0.1 -0.5
v -0.1 0.1 -0.6
v -0.1 0.1 -0.7
v -0.1 0.1 -0.8
v -0.1 0.2 0.5
v -0.1 0.2 0.4
v -0.1 0.2 -0.5
v -0.1 0.2 -0.6
v 0 0.1 0.6
v 0 0.1 0.5
v 0 0.1 0.3
v 0 0.1 0
v 0 0.1 -0.1
v 0 0.1 -0.4
v 0 0.1 -0.6
v 0 0.1 -0.7
v 0 0.2 0.6
v 0 0.2 0.5
v 0 0.2 0.3
v 0 0.2 0
v 0 0.2 -0.1
v 0 0.2 -0.4
v 0 0.2 -0.6
v 0 0.2 -0.7
v 0.4 0.1 0.2
v 0.4 0.1 0
v 0.4 0.1 -0.1
v 0.4 0.1 -0.3
v 0.4 0.2 0.2
v 0.4 0.2 0
v 0.4 0.2 -0.1
v 0.4 0.2 -0.3
v -0.3 0.1 0.2
v -0.3 0.1 0
v -0.3 0.1 -0.1
v -0.3 0.1 -0.3
v -0.3 0.2 0.2
v -0.3 0.2 0
v -0.3 0.2 -0.1
v -0.3 0.2 -0.3
v 0.1 0.1 0.6
v 0.1 0.1 0.5
v 0.1 0.1 0.3
v 0.1 0.1 0
v 0.1 0.1 -0.1
v 0.1 0.1 -0.4
v 0.1 0.1 -0.6
v 0.1 0.1 -0.7
v 0.1 0.2 0.6
v 0.1 0.2 0.5
v 0.1 0.2 0.3
v 0.1 0.2 0
v 0.1 0.2 -0.1
v 0.1 0.2 -0.4
v 0.1 0.2 -0.6
v 0.1 0.2 -0.7
v 0.2 0 0.7
v 0.2 0 0.6
v 0.2 0 -0.7
v 0.2 0 -0.8
v 0.2 0.1 0.7
v 0.2 0.1 0.6
v 0.2 0.1 0.5
v 0.2 0.1 0.4
v 0.2 0.1 -0.5
v 0.2 0.1 -0.6
v 0.2 0.1 -0.7
v 0.2 0.1 -0.8
v 0.2 0.2 0.5
v 0.2 0.2 0.4
v 0.2 0.2 -0.5
v 0.2 0.2 -0.6
v 0.3 0 0.6
v 0.3 0 0.5
v 0.3 0 -0.6
v 0.3 0 -0.7
v 0.3 0.1 0.6
v 0.3 0.1 0.5
v 0.3 0.1 0.4
v 0.3 0.1 0.3
v 0.3 0.1 -0.4
v 0.3 0.1 -0.5
v 0.3 0.1 -0.6
v 0.3 0.1 -0.7
v 0.3 0.2 0.4
v 0.3 0.2 0.3
v 0.3 0.2 -0.4
v 0.3 0.2 -0.5
v 0.4 0 0.5
v 0.4 0 0.4
v 0.4 0 -0.5
v 0.4 0 -0.6
v 0.4 0.1 0.5
v 0.4 0.1 0.4
v 0.4 0.1 -0.5
v 0.4 0.1 -0.6
v 0.5 0 0.4
v 0.5 0 0.3
v 0.5 0 -0.4
v 0.5 0 -0.5
v 0.5 0.1 0.4
v 0.5 0.1 0.3
v 0.5 0.1 0.2
v 0.5 0.1 0.1
v 0.5 0.1 -0.2
v 0.5 0.1 -0.3
v 0.5 0.1 -0.4
v 0.5 0.1 -0.5
v 0.5 0.2 0.2
v 0.5 0.2 0.1
v 0.5 0.2 -0.2
v 0.5 0.2 -0.3
v 0.6 0 0.3
v 0.6 0 0.2
v 0.6 0 -0.3
v 0.6 0 -0.4
v 0.6 0.1 0.3
v 0.6 0.1 0.2
v 0.6 0.1 0.1
v 0.6 0.1 0
v 0.6 0.1 -0.1
v 0.6 0.1 -0.2
v 0.6 0.1 -0.3
v 0.6 0.1 -0.4
v 0.6 0.2 0.1
v 0.6 0.2 0
v 0.6 0.2 -0.1
v 0.6 0.2 -0.2
v 0.7 0 0.2
v 0.7 0 0.1
v 0.7 0 -0.2
v 0.7 0 -0.3
v 0.7 0.1 0.2
v 0.7 0.1 0.1
v 0.7 0.1 0
v 0.7 0.1 -0.1
v 0.7 0.1 -0.2
v 0.7 0.1 -0.3
v 0.7 0.2 0
v 0.7 0.2 -0.1
v 0.8 0 0.1
v 0.8 0 -0.2
v 0.8 0.1 0.1
v 0.8 0.1 -0.2
v -0.1 0 0.7
v -0.1 0.1 0.7
v 0.2 0 0.7
v 0.2 0.1 0.7
v -0.2 0 0.6
v -0.2 0.1 0.6
v -0.1 0 0.6
v -0.1 0.1 0.6
v 0 0.1 0.6
v 0 0.2 0.6
v 0.1 0.1 0.6
v 0.1 0.2 0.6
v 0.2 0 0.6
v 0.2 0.1 0.6
v 0.3 0 0.6
v 0.3 0.1 0.6
v -0.3 0 0.5
v -0.3 0.1 0.5
v -0.2 0 0.5
v -0.2 0.1 0.5
v -0.1 0.1 0.5
v -0.1 0.2 0.5
v 0 0.1 0.5
v 0 0.2 0.5
v 0.1 0.1 0.5
v 0.1 0.2 0.5
v 0.2 0.1 0.5
v 0.2 0.2 0.5
v 0.3 0 0.5
v 0.3 0.1 0.5
v 0.4 0 0.5
v 0.4 0.1 0.5
v -0.4 0 0.4
v -0.4 0.1 0.4
v -0.3 0 0.4
v -0.3 0.1 0.4
v -0.2 0.1 0.4
v -0.2 0.2 0.4
v -0.1 0.1 0.4
v -0.1 0.2 0.4
v 0.2 0.1 0.4
v 0.2 0.2 0.4
v 0.3 0.1 0.4
v 0.3 0.2 0.4
v 0.4 0 0.4
v 0.4 0.1 0.4
v 0.5 0 0.4
v 0.5 0.1 0.4
v -0.5 0 0.3
v -0.5 0.1 0.3
v -0.4 0 0.3
v -0.4 0.1 0.3
v 0.5 0 0.3
v 0.5 0.1 0.3
v 0.6 0 0.3
v 0.6 0.1 0.3
v -0.6 0 0.2
v -0.6 0.1 0.2
v -0.5 0 0.2
v -0.5 0.1 0.2
v -0.4 0.1 0.2
v -0.4 0.2 0.2
v -0.3 0.1 0.2
v -0.3 0.2 0.2
v 0.4 0.1 0.2
v 0.4 0.2 0.2
v 0.5 0.1 0.2
v 0.5 0.2 0.2
v 0.6 0 0.2
v 0.6 0.1 0.2
v 0.7 0 0.2
v 0.7 0.1 0.2
v -0.7 0 0.1
v -0.7 0.1 0.1
v -0.6 0 0.1
v -0.6 0.1 0.1
v -0.5 0.1 0.1
v -0.5 0.2 0.1
v -0.4 0.1 0.1
v -0.4 0.2 0.1
v 0.5 0.1 0.1
v 0.5 0.2 0.1
v 0.6 0.1 0.1
v 0.6 0.2 0.1
v 0.7 0 0.1
v 0.7 0.1 0.1
v 0.8 0 0.1
v 0.8 0.1 0.1
v -0.6 0.1 0
v -0.6 0.2 0
v -0.5 0.1 0
v -0.5 0.2 0
v -0.3 0.1 0
v -0.3 0.2 0
v 0 0.1 0
v 0 0.2 0
v 0.1 0.1 0
v 0.1 0.2 0
v 0.4 0.1 0
v 0.4 0.2 0
v 0.6 0.1 0
v 0.6 0.2 0
v 0.7 0.1 0
v 0.7 0.2 0
v -0.2 0.1 -0.4
v -0.2 0.2 -0.4
v 0 0.1 -0.4
v 0 0.2 -0.4
v 0.1 0.1 -0.4
v 0.1 0.2 -0.4
v 0.3 0.1 -0.4
v 0.3 0.2 -0.4
v -0.2 0.1 0.3
v -0.2 0.2 0.3
v 0 0.1 0.3
v 0 0.2 0.3
v 0.1 0.1 0.3
v 0.1 0.2 0.3
v 0.3 0.1 0.3
v 0.3 0.2 0.3
v -0.6 0.1 -0.1
v -0.6 0.2 -0.1
v -0.5 0.1 -0.1
v -0.5 0.2 -0.1
v -0.3 0.1 -0.1
v -0.3 0.2 -0.1
v 0 0.1 -0.1
v 0 0.2 -0.1
v 0.1 0.1 -0.1
v 0.1 0.2 -0.1
v 0.4 0.1 -0.1
v 0.4 0.2 -0.1
v 0.6 0.1 -0.1
v 0.6 0.2 -0.1
v 0.7 0.1 -0.1
v 0.7 0.2 -0.1
v -0.7 0 -0.2
v -0.7 0.1 -0.2
v -0.6 0 -0.2
v -0.6 0.1 -0.2
v -0.5 0.1 -0.2
v -0.5 0.2 -0.2
v -0.4 0.1 -0.2
v -0.4 0.2 -0.2
v 0.5 0.1 -0.2
v 0.5 0.2 -0.2
v 0.6 0.1 -0.2
v 0.6 0.2 -0.2
v 0.7 0 -0.2
v 0.7 0.1 -0.2
v 0.8 0 -0.2
v 0.8 0.1 -0.2
v -0.6 0 -0.3
v -0.6 0.1 -0.3
v -0.5 0 -0.3
v -0.5 0.1 -0.3
v -0.4 0.1 -0.3
v -0.4 0.2 -0.3
v -0.3 0.1 -0.3
v -0.3 0.2 -0.3
v 0.4 0.1 -0.3
v 0.4 0.2 -0.3
v 0.5 0.1 -0.3
v 0.5 0.2 -0.3
v 0.6 0 -0.3
v 0.6 0.1 -0.3
v 0.7 0 -0.3
v 0.7 0.1 -0.3
v -0.5 0 -0.4
v -0.5 0.1 -0.4
v -0.4 0 -0.4
v -0.4 0.1 -0.4
v 0.5 0 -0.4
v 0.5 0.1 -0.4
v 0.6 0 -0.4
v 0.6 0.1 -0.4
v -0.4 0 -0.5
v -0.4 0.1 -0.5
v -0.3 0 -0.5
v -0.3 0.1 -0.5
v -0.2 0.1 -0.5
v -0.2 0.2 -0.5
v -0.1 0.1 -0.5
v -0.1 0.2 -0.5
v 0.2 0.1 -0.5
v 0.2 0.2 -0.5
v 0.3 0.1 -0.5
v 0.3 0.2 -0.5
v 0.4 0 -0.5
v 0.4 0.1 -0.5
v 0.5 0 -0.5
v 0.5 0.1 -0.5
v -0.3 0 -0.6
v -0.3 0.1 -0.6
v -0.2 0 -0.6
v -0.2 0.1 -0.6
v -0.1 0.1 -0.6
v -0.1 0.2 -0.6
v 0 0.1 -0.6
v 0 0.2 -0.6
v 0.1 0.1 -0.6
v 0.1 0.2 -0.6
v 0.2 0.1 -0.6
v 0.2 0.2 -0.6
v 0.3 0 -0.6
v 0.3 0.1 -0.6
v 0.4 0 -0.6
v 0.4 0.1 -0.6
v -0.2 0 -0.7
v -0.2 0.1 -0.7
v -0.1 0 -0.7
v -0.1 0.1 -0.7
v 0 0.1 -0.7
v 0 0.2 -0.7
v 0.1 0.1 -0.7
v 0.1 0.2 -0.7
v 0.2 0 -0.7
v 0.2 0.1 -0.7
v 0.3 0 -0.7
v 0.3 0.1 -0.7
v -0.1 0 -0.8
v -0.1 0.1 -0.8
v 0.2 0 -0.8
v 0.2 0.1 -0.8
v -0.1 0 0.7
v 0.2 0 0.7
v -0.2 0 0.6
v -0.1 0 0.6
v 0.2 0 0.6
v 0.3 0 0.6
v -0.3 0 0.5
v -0.2 0 0.5
v 0.3 0 0.5
v 0.4 0 0.5
v -0.4 0 0.4
v -0.3 0 0.4
v 0.4 0 0.4
v 0.5 0 0.4
v -0.5 0 0.3
v -0.4 0 0.3
v 0.5 0 0.3
v 0.6 0 0.3
v -0.6 0 0.2
v -0.5 0 0.2
v 0.6 0 0.2
v 0.7 0 0.2
v -0.7 0 0.1
v -0.6 0 0.1
v 0.7 0 0.1
v 0.8 0 0.1
v -0.7 0 -0.2
v -0.6 0 -0.2
v 0.7 0 -0.2
v 0.8 0 -0.2
v -0.6 0 -0.3
v -0.5 0 -0.3
v 0.6 0 -0.3
v 0.7 0 -0.3
v -0.5 0 -0.4
v -0.4 0 -0.4
v 0.5 0 -0.4
v 0.6 0 -0.4
v -0.4 0 -0.5
v -0.3 0 -0.5
v 0.4 0 -0.5
v 0.5 0 -0.5
v -0.3 0 -0.6
v -0.2 0 -0.6
v 0.3 0 -0.6
v 0.4 0 -0.6
v -0.2 0 -0.7
v -0.1 0 -0.7
v 0.2 0 -0.7
v 0.3 0 -0.7
v -0.1 0 -0.8
v 0.2 0 -0.8
v -0.1 0.1 0.7
v 0.2 0.1 0.7
v -0.2 0.1 0.6
v -0.1 0.1 0.6
v 0 0.1 0.6
v 0.1 0.1 0.6
v 0.2 0.1 0.6
v 0.3 0.1 0.6
v -0.3 0.1 0.5
v -0.2 0.1 0.5
v -0.1 0.1 0.5
v 0 0.1 0.5
v 0.1 0.1 0.5
v 0.2 0.1 0.5
v 0.3 0.1 0.5
v 0.4 0.1 0.5
v -0.4 0.1 0.4
v -0.3 0.1 0.4
v -0.2 0.1 0.4
v -0.1 0.1 0.4
v 0.2 0.1 0.4
v 0.3 0.1 0.4
v 0.4 0.1 0.4
v 0.5 0.1 0.4
v -0.5 0.1 0.3
v -0.4 0.1 0.3
v -0.2 0.1 0.3
v 0 0.1 0.3
v 0.1 0.1 0.3
v 0.3 0.1 0.3
v 0.5 0.1 0.3
v 0.6 0.1 0.3
v -0.6 0.1 0.2
v -0.5 0.1 0.2
v -0.4 0.1 0.2
v -0.3 0.1 0.2
v 0.4 0.1 0.2
v 0.5 0.1 0.2
v 0.6 0.1 0.2
v 0.7 0.1 0.2
v -0.7 0.1 0.1
v -0.6 0.1 0.1
v -0.5 0.1 0.1
v -0.4 0.1 0.1
v 0.5 0.1 0.1
v 0.6 0.1 0.1
v 0.7 0.1 0.1
v 0.8 0.1 0.1
v -0.6 0.1 0
v -0.5 0.1 0
v -0.3 0.1 0
v 0 0.1 0
v 0.1 0.1 0
v 0.4 0.1 0
v 0.6 0.1 0
v 0.7 0.1 0
v -0.6 0.1 -0.1
v -0.5 0.1 -0.1
v -0.3 0.1 -0.1
v 0 0.1 -0.1
v 0.1 0.1 -0.1
v 0.4 0.1 -0.1
v 0.6 0.1 -0.1
v 0.7 0.1 -0.1
v -0.7 0.1 -0.2
v -0.6 0.1 -0.2
v -0.5 0.1 -0.2
v -0.4 0.1 -0.2
v 0.5 0.1 -0.2
v 0.6 0.1 -0.2
v 0.7 0.1 -0.2
v 0.8 0.1 -0.2
v -0.6 0.1 -0.3
v -0.5 0.1 -0.3
v -0.4 0.1 -0.3
v -0.3 0.1 -0.3
v 0.4 0.1 -0.3
v 0.5 0.1 -0.3
v 0.6 0.1 -0.3
v 0.7 0.1 -0.3
v -0.5 0.1 -0.4
v -0.4 0.1 -0.4
v -0.2 0.1 -0.4
v 0 0.1 -0.4
v 0.1 0.1 -0.4
v 0.3 0.1 -0.4
v 0.5 0.1 -0.4
v 0.6 0.1 -0.4
v -0.4 0.1 -0.5
v -0.3 0.1 -0.5
v -0.2 0.1 -0.5
v -0.1 0.1 -0.5
v 0.2 0.1 -0.5
v 0.3 0.1 -0.5
v 0.4 0.1 -0.5
v 0.5 0.1 -0.5
v -0.3 0.1 -0.6
v -0.2 0.1 -0.6
v -0.1 0.1 -0.6
v 0 0.1 -0.6
v 0.1 0.1 -0.6
v 0.2 0.1 -0.6
v 0.3 0.1 -0.6
v 0.4 0.1 -0.6
v -0.2 0.1 -0.7
v -0.1 0.1 -0.7
v 0 0.1 -0.7
v 0.1 0.1 -0.7
v 0.2 0.1 -0.7
v 0.3 0.1 -0.7
v -0.1 0.1 -0.8
v 0.2 0.1 -0.8
v 0 0.2 0.6
v 0.1 0.2 0.6
v -0.1 0.2 0.5
v 0 0.2 0.5
v 0.1 0.2 0.5
v 0.2 0.2 0.5
v -0.2 0.2 0.4
v -0.1 0.2 0.4
v 0.2 0.2 0.4
v 0.3 0.2 0.4
v -0.2 0.2 0.3
v 0 0.2 0.3
v 0.1 0.2 0.3
v 0.3 0.2 0.3
v -0.4 0.2 0.2
v -0.3 0.2 0.2
v 0.4 0.2 0.2
v 0.5 0.2 0.2
v -0.5 0.2 0.1
v -0.4 0.2 0.1
v 0.5 0.2 0.1
v 0.6 0.2 0.1
v -0.6 0.2 0
v -0.5 0.2 0
v -0.3 0.2 0
v 0 0.2 0
v 0.1 0.2 0
v 0.4 0.2 0
v 0.6 0.2 0
v 0.7 0.2 0
v -0.6 0.2 -0.1
v -0.5 0.2 -0.1
v -0.3 0.2 -0.1
v 0 0.2 -0.1
v 0.1 0.2 -0.1
v 0.4 0.2 -0.1
v 0.6 0.2 -0.1
v 0.7 0.2 -0.1
v -0.5 0.2 -0.2
v -0.4 0.2 -0.2
v 0.5 0.2 -0.2
v 0.6 0.2 -0.2
v -0.4 0.2 -0.3
v -0.3 0.2 -0.3
v 0.4 0.2 -0.3
v 0.5 0.2 -0.3
v -0.2 0.2 -0.4
v 0 0.2 -0.4
v 0.1 0.2 -0.4
v 0.3 0.2 -0.4
v -0.2 0.2 -0.5
v -0.1 0.2 -0.5
v 0.2 0.2 -0.5
v 0.3 0.2 -0.5
v -0.1 0.2 -0.6
v 0 0.2 -0.6
v 0.1 0.2 -0.6
v 0.2 0.2 -0.6
v 0 0.2 -0.7
v 0.1 0.2 -0.7

# faces
f 3/1/1 2/1/1 1/1/1
f 4/1/1 2/1/1 3/1/1
f 9/1/1 6/1/1 5/1/1
f 10/1/1 6/1/1 9/1/1
f 13/1/1 8/1/1 7/1/1
f 14/1/1 8/1/1 13/1/1
f 15/2/1 12/2/1 11/2/1
f 16/2/1 12/2/1 15/2/1
f 21/1/1 18/1/1 17/1/1
f 22/1/1 18/1/1 21/1/1
f 27/1/1 20/1/1 19/1/1
f 28/1/1 20/1/1 27/1/1
f 29/2/1 24/2/1 23/2/1
f 30/2/1 24/2/1 29/2/1
f 31/2/1 26/2/1 25/2/1
f 32/2/1 26/2/1 31/2/1
f 37/1/1 34/1/1 33/1/1
f 38/1/1 34/1/1 37/1/1
f 43/1/1 36/1/1 35/1/1
f 44/1/1 36/1/1 43/1/1
f 45/2/1 40/2/1 39/2/1
f 46/2/1 40/2/1 45/2/1
f 47/2/1 42/2/1 41/2/1
f 48/2/1 42/2/1 47/2/1
f 53/1/1 50/1/1 49/1/1
f 54/1/1 50/1/1 53/1/1
f 55/1/1 52/1/1 51/1/1
f 56/1/1 52/1/1 55/1/1
f 61/1/1 58/1/1 57/1/1
f 62/1/1 58/1/1 61/1/1
f 67/1/1 60/1/1 59/1/1
f 68/1/1 60/1/1 67/1/1
f 69/2/1 64/2/1 63/2/1
f 70/2/1 64/2/1 69/2/1
f 71/2/1 66/2/1 65/2/1
f 72/2/1 66/2/1 71/2/1
f 77/1/1 74/1/1 73/1/1
f 78/1/1 74/1/1 77/1/1
f 83/1/1 76/1/1 75/1/1
f 84/1/1 76/1/1 83/1/1
f 85/2/1 80/2/1 79/2/1
f 86/2/1 80/2/1 85/2/1
f 87/2/1 82/2/1 81/2/1
f 88/2/1 82/2/1 87/2/1
f 97/2/1 90/2/1 89/2/1
f 98/2/1 90/2/1 97/2/1
f 99/2/1 92/2/1 91/2/1
f 100/2/1 92/2/1 99/2/1
f 101/2/1 94/2/1 93/2/1
f 102/2/1 94/2/1 101/2/1
f 103/2/1 96/2/1 95/2/1
f 104/2/1 96/2/1 103/2/1
f 109/2/1 106/2/1 105/2/1
f 110/2/1 106/2/1 109/2/1
f 111/2/1 108/2/1 107/2/1
f 112/2/1 108/2/1 111/2/1
f 113/2/2 114/2/2 117/2/2
f 117/2/2 114/2/2 118/2/2
f 115/2/2 116/2/2 119/2/2
f 119/2/2 116/2/2 120/2/2
f 121/2/2 122/2/2 129/2/2
f 129/2/2 122/2/2 130/2/2
f 123/2/2 124/2/2 131/2/2
f 131/2/2 124/2/2 132/2/2
f 125/2/2 126/2/2 133/2/2
f 133/2/2 126/2/2 134/2/2
f 127/2/2 128/2/2 135/2/2
f 135/2/2 128/2/2 136/2/2
f 137/1/2 138/1/2 141/1/2
f 141/1/2 138/1/2 142/1/2
f 139/1/2 140/1/2 147/1/2
f 147/1/2 140/1/2 148/1/2
f 143/2/2 144/2/2 149/2/2
f 149/2/2 144/2/2 150/2/2
f 145/2/2 146/2/2 151/2/2
f 151/2/2 146/2/2 152/2/2
f 153/1/2 154/1/2 157/1/2
f 157/1/2 154/1/2 158/1/2
f 155/1/2 156/1/2 163/1/2
f 163/1/2 156/1/2 164/1/2
f 159/2/2 160/2/2 165/2/2
f 165/2/2 160/2/2 166/2/2
f 161/2/2 162/2/2 167/2/2
f 167/2/2 162/2/2 168/2/2
f 169/1/2 170/1/2 173/1/2
f 173/1/2 170/1/2 174/1/2
f 171/1/2 172/1/2 175/1/2
f 175/1/2 172/1/2 176/1/2
f 177/1/2 178/1/2 181/1/2
f 181/1/2 178/1/2 182/1/2
f 179/1/2 180/1/2 187/1/2
f 187/1/2 180/1/2 188/1/2
f 183/2/2 184/2/2 189/2/2
f 189/2/2 184/2/2 190/2/2
f 185/2/2 186/2/2 191/2/2
f 191/2/2 186/2/2 192/2/2
f 193/1/2 194/1/2 197/1/2
f 197/1/2 194/1/2 198/1/2
f 195/1/2 196/1/2 203/1/2
f 203/1/2 196/1/2 204/1/2
f 199/2/2 200/2/2 205/2/2
f 205/2/2 200/2/2 206/2/2
f 201/2/2 202/2/2 207/2/2
f 207/2/2 202/2/2 208/2/2
f 209/1/2 210/1/2 213/1/2
f 213/1/2 210/1/2 214/1/2
f 211/1/2 212/1/2 217/1/2
f 217/1/2 212/1/2 218/1/2
f 215/2/2 216/2/2 219/2/2
f 219/2/2 216/2/2 220/2/2
f 221/1/2 222/1/2 223/1/2
f 223/1/2 222/1/2 224/1/2
f 227/1/3 226/1/3 225/1/3
f 228/1/3 226/1/3 227/1/3
f 231/1/3 230/1/3 229/1/3
f 232/1/3 230/1/3 231/1/3
f 235/2/3 234/2/3 233/2/3
f 236/2/3 234/2/3 235/2/3
f 239/1/3 238/1/3 237/1/3
f 240/1/3 238/1/3 239/1/3
f 243/1/3 242/1/3 241/1/3
f 244/1/3 242/1/3 243/1/3
f 247/2/3 246/2/3 245/2/3
f 248/2/3 246/2/3 247/2/3
f 251/2/3 250/2/3 249/2/3
f 252/2/3 250/2/3 251/2/3
f 255/1/3 254/1/3 253/1/3
f 256/1/3 254/1/3 255/1/3
f 259/1/3 258/1/3 257/1/3
f 260/1/3 258/1/3 259/1/3
f 263/2/3 262/2/3 261/2/3
f 264/2/3 262/2/3 263/2/3
f 267/2/3 266/2/3 265/2/3
f 268/2/3 266/2/3 267/2/3
f 271/1/3 270/1/3 269/1/3
f 272/1/3 270/1/3 271/1/3
f 275/1/3 274/1/3 273/1/3
f 276/1/3 274/1/3 275/1/3
f 279/1/3 278/1/3 277/1/3
f 280/1/3 278/1/3 279/1/3
f 283/1/3 282/1/3 281/1/3
f 284/1/3 282/1/3 283/1/3
f 287/2/3 286/2/3 285/2/3
f 288/2/3 286/2/3 287/2/3
f 291/2/3 290/2/3 289/2/3
f 292/2/3 290/2/3 291/2/3
f 295/1/3 294/1/3 293/1/3
f 296/1/3 294/1/3 295/1/3
f 299/1/3 298/1/3 297/1/3
f 300/1/3 298/1/3 299/1/3
f 303/2/3 302/2/3 301/2/3
f 304/2/3 302/2/3 303/2/3
f 307/2/3 306/2/3 305/2/3
f 308/2/3 306/2/3 307/2/3
f 311/1/3 310/1/3 309/1/3
f 312/1/3 310/1/3 311/1/3
f 315/2/3 314/2/3 313/2/3
f 316/2/3 314/2/3 315/2/3
f 319/2/3 318/2/3 317/2/3
f 320/2/3 318/2/3 319/2/3
f 323/2/3 322/2/3 321/2/3
f 324/2/3 322/2/3 323/2/3
f 327/2/3 326/2/3 325/2/3
f 328/2/3 326/2/3 327/2/3
f 331/2/3 330/2/3 329/2/3
f 332/2/3 330/2/3 331/2/3
f 335/2/3 334/2/3 333/2/3
f 336/2/3 334/2/3 335/2/3
f 337/2/4 338/2/4 339/2/4
f 339/2/4 338/2/4 340/2/4
f 341/2/4 342/2/4 343/2/4
f 343/2/4 342/2/4 344/2/4
f 345/2/4 346/2/4 347/2/4
f 347/2/4 346/2/4 348/2/4
f 349/2/4 350/2/4 351/2/4
f 351/2/4 350/2/4 352/2/4
f 353/2/4 354/2/4 355/2/4
f 355/2/4 354/2/4 356/2/4
f 357/2/4 358/2/4 359/2/4
f 359/2/4 358/2/4 360/2/4
f 361/1/4 362/1/4 363/1/4
f 363/1/4 362/1/4 364/1/4
f 365/2/4 366/2/4 367/2/4
f 367/2/4 366/2/4 368/2/4
f 369/2/4 370/2/4 371/2/4
f 371/2/4 370/2/4 372/2/4
f 373/1/4 374/1/4 375/1/4
f 375/1/4 374/1/4 376/1/4
f 377/1/4 378/1/4 379/1/4
f 379/1/4 378/1/4 380/1/4
f 381/2/4 382/2/4 383/2/4
f 383/2/4 382/2/4 384/2/4
f 385/2/4 386/2/4 387/2/4
f 387/2/4 386/2/4 388/2/4
f 389/1/4 390/1/4 391/1/4
f 391/1/4 390/1/4 392/1/4
f 393/1/4 394/1/4 395/1/4
f 395/1/4 394/1/4 396/1/4
f 397/1/4 398/1/4 399/1/4
f 399/1/4 398/1/4 400/1/4
f 401/1/4 402/1/4 403/1/4
f 403/1/4 402/1/4 404/1/4
f 405/2/4 406/2/4 407/2/4
f 407/2/4 406/2/4 408/2/4
f 409/2/4 410/2/4 411/2/4
f 411/2/4 410/2/4 412/2/4
f 413/1/4 414/1/4 415/1/4
f 415/1/4 414/1/4 416/1/4
f 417/1/4 418/1/4 419/1/4
f 419/1/4 418/1/4 420/1/4
f 421/2/4 422/2/4 423/2/4
f 423/2/4 422/2/4 424/2/4
f 425/2/4 426/2/4 427/2/4
f 427/2/4 426/2/4 428/2/4
f 429/1/4 430/1/4 431/1/4
f 431/1/4 430/1/4 432/1/4
f 433/1/4 434/1/4 435/1/4
f 435/1/4 434/1/4 436/1/4
f 437/2/4 438/2/4 439/2/4
f 439/2/4 438/2/4 440/2/4
f 441/1/4 442/1/4 443/1/4
f 443/1/4 442/1/4 444/1/4
f 445/1/4 446/1/4 447/1/4
f 447/1/4 446/1/4 448/1/4
f 452/1/5 450/1/5 449/1/5
f 453/1/5 450/1/5 452/1/5
f 456/1/5 452/1/5 451/1/5
f 456/1/5 454/1/5 453/1/5
f 456/1/5 453/1/5 452/1/5
f 457/1/5 454/1/5 456/1/5
f 460/1/5 456/1/5 455/1/5
f 460/1/5 458/1/5 457/1/5
f 460/1/5 457/1/5 456/1/5
f 461/1/5 458/1/5 460/1/5
f 464/1/5 460/1/5 459/1/5
f 464/1/5 462/1/5 461/1/5
f 464/1/5 461/1/5 460/1/5
f 465/1/5 462/1/5 464/1/5
f 468/1/5 464/1/5 463/1/5
f 468/1/5 466/1/5 465/1/5
f 468/1/5 465/1/5 464/1/5
f 469/1/5 466/1/5 468/1/5
f 472/1/5 468/1/5 467/1/5
f 472/1/5 470/1/5 469/1/5
f 472/1/5 469/1/5 468/1/5
f 473/1/5 470/1/5 472/1/5
f 475/1/5 472/1/5 471/1/5
f 475/1/5 474/1/5 473/1/5
f 475/1/5 473/1/5 472/1/5
f 476/1/5 474/1/5 475/1/5
f 477/1/5 474/1/5 476/1/5
f 478/1/5 474/1/5 477/1/5
f 479/1/5 477/1/5 476/1/5
f 480/1/5 477/1/5 479/1/5
f 481/1/5 477/1/5 480/1/5
f 482/1/5 477/1/5 481/1/5
f 483/1/5 481/1/5 480/1/5
f 484/1/5 481/1/5 483/1/5
f 485/1/5 481/1/5 484/1/5
f 486/1/5 481/1/5 485/1/5
f 487/1/5 485/1/5 484/1/5
f 488/1/5 485/1/5 487/1/5
f 489/1/5 485/1/5 488/1/5
f 490/1/5 485/1/5 489/1/5
f 491/1/5 489/1/5 488/1/5
f 492/1/5 489/1/5 491/1/5
f 493/1/5 489/1/5 492/1/5
f 494/1/5 489/1/5 493/1/5
f 495/1/5 493/1/5 492/1/5
f 496/1/5 493/1/5 495/1/5
f 497/1/5 493/1/5 496/1/5
f 498/1/5 493/1/5 497/1/5
f 499/1/5 497/1/5 496/1/5
f 500/1/5 497/1/5 499/1/5
f 501/1/6 502/1/6 504/1/6
f 504/1/6 502/1/6 505/1/6
f 505/1/6 502/1/6 506/1/6
f 506/1/6 502/1/6 507/1/6
f 503/1/6 504/1/6 510/1/6
f 504/1/6 505/1/6 510/1/6
f 510/1/6 505/1/6 511/1/6
f 511/1/6 505/1/6 512/1/6
f 506/1/6 507/1/6 513/1/6
f 507/1/6 508/1/6 513/1/6
f 513/1/6 508/1/6 514/1/6
f 514/1/6 508/1/6 515/1/6
f 510/1/6 511/1/6 518/1/6
f 509/1/6 510/1/6 518/1/6
f 518/1/6 511/1/6 519/1/6
f 519/1/6 511/1/6 520/1/6
f 515/1/6 516/1/6 521/1/6
f 514/1/6 515/1/6 521/1/6
f 521/1/6 516/1/6 522/1/6
f 522/1/6 516/1/6 523/1/6
f 518/1/6 519/1/6 526/1/6
f 517/1/6 518/1/6 526/1/6
f 526/1/6 519/1/6 527/1/6
f 523/1/6 524/1/6 530/1/6
f 522/1/6 523/1/6 530/1/6
f 530/1/6 524/1/6 531/1/6
f 527/1/6 528/1/6 534/1/6
f 526/1/6 527/1/6 534/1/6
f 525/1/6 526/1/6 534/1/6
f 534/1/6 528/1/6 535/1/6
f 535/1/6 528/1/6 536/1/6
f 531/1/6 532/1/6 537/1/6
f 530/1/6 531/1/6 537/1/6
f 529/1/6 530/1/6 537/1/6
f 537/1/6 532/1/6 538/1/6
f 538/1/6 532/1/6 539/1/6
f 534/1/6 535/1/6 542/1/6
f 533/1/6 534/1/6 542/1/6
f 542/1/6 535/1/6 543/1/6
f 543/1/6 535/1/6 544/1/6
f 539/1/6 540/1/6 545/1/6
f 538/1/6 539/1/6 545/1/6
f 545/1/6 540/1/6 546/1/6
f 546/1/6 540/1/6 547/1/6
f 542/1/6 543/1/6 549/1/6
f 541/1/6 542/1/6 549/1/6
f 549/1/6 543/1/6 550/1/6
f 536/1/6 528/1/6 551/1/6
f 551/1/6 528/1/6 552/1/6
f 529/1/6 537/1/6 553/1/6
f 553/1/6 537/1/6 554/1/6
f 547/1/6 548/1/6 555/1/6
f 546/1/6 547/1/6 555/1/6
f 555/1/6 548/1/6 556/1/6
f 541/1/6 549/1/6 557/1/6
f 556/1/6 548/1/6 564/1/6
f 541/1/6 557/1/6 565/1/6
f 557/1/6 558/1/6 565/1/6
f 565/1/6 558/1/6 566/1/6
f 566/1/6 558/1/6 567/1/6
f 563/1/6 564/1/6 570/1/6
f 564/1/6 548/1/6 571/1/6
f 570/1/6 564/1/6 571/1/6
f 571/1/6 548/1/6 572/1/6
f 567/1/6 568/1/6 573/1/6
f 566/1/6 567/1/6 573/1/6
f 573/1/6 568/1/6 574/1/6
f 574/1/6 568/1/6 575/1/6
f 559/1/6 560/1/6 576/1/6
f 561/1/6 562/1/6 577/1/6
f 569/1/6 570/1/6 578/1/6
f 570/1/6 571/1/6 578/1/6
f 578/1/6 571/1/6 579/1/6
f 579/1/6 571/1/6 580/1/6
f 575/1/6 576/1/6 581/1/6
f 574/1/6 575/1/6 581/1/6
f 581/1/6 576/1/6 582/1/6
f 576/1/6 560/1/6 583/1/6
f 582/1/6 576/1/6 583/1/6
f 583/1/6 560/1/6 584/1/6
f 561/1/6 577/1/6 585/1/6
f 578/1/6 579/1/6 585/1/6
f 577/1/6 578/1/6 585/1/6
f 585/1/6 579/1/6 586/1/6
f 586/1/6 579/1/6 587/1/6
f 587/1/6 579/1/6 588/1/6
f 582/1/6 583/1/6 589/1/6
f 589/1/6 583/1/6 590/1/6
f 590/1/6 583/1/6 591/1/6
f 586/1/6 587/1/6 594/1/6
f 594/1/6 587/1/6 595/1/6
f 595/1/6 587/1/6 596/1/6
f 591/1/6 592/1/6 597/1/6
f 590/1/6 591/1/6 597/1/6
f 597/1/6 592/1/6 598/1/6
f 598/1/6 592/1/6 599/1/6
f 594/1/6 595/1/6 602/1/6
f 593/1/6 594/1/6 602/1/6
f 602/1/6 595/1/6 603/1/6
f 603/1/6 595/1/6 604/1/6
f 599/1/6 600/1/6 605/1/6
f 598/1/6 599/1/6 605/1/6
f 605/1/6 600/1/6 606/1/6
f 606/1/6 600/1/6 607/1/6
f 602/1/6 603/1/6 608/1/6
f 601/1/6 602/1/6 608/1/6
f 608/1/6 603/1/6 609/1/6
f 609/1/6 603/1/6 610/1/6
f 606/1/6 607/1/6 611/1/6
f 608/1/6 609/1/6 611/1/6
f 607/1/6 608/1/6 611/1/6
f 611/1/6 609/1/6 612/1/6
f 613/2/6 614/2/6 616/2/6
f 616/2/6 614/2/6 617/2/6
f 615/2/6 616/2/6 620/2/6
f 617/2/6 618/2/6 620/2/6
f 616/2/6 617/2/6 620/2/6
f 620/2/6 618/2/6 621/2/6
f 619/2/6 620/2/6 623/2/6
f 621/2/6 622/2/6 623/2/6
f 620/2/6 621/2/6 623/2/6
f 623/2/6 622/2/6 624/2/6
f 624/2/6 622/2/6 625/2/6
f 625/2/6 622/2/6 626/2/6
f 627/2/6 628/2/6 632/2/6
f 629/2/6 630/2/6 633/2/6
f 631/2/6 632/2/6 636/2/6
f 632/2/6 628/2/6 637/2/6
f 636/2/6 632/2/6 637/2/6
f 624/2/6 625/2/6 638/2/6
f 638/2/6 625/2/6 639/2/6
f 633/2/6 634/2/6 640/2/6
f 629/2/6 633/2/6 640/2/6
f 640/2/6 634/2/6 641/2/6
f 638/2/6 639/2/6 643/2/6
f 641/2/6 642/2/6 643/2/6
f 640/2/6 641/2/6 643/2/6
f 639/2/6 640/2/6 643/2/6
f 636/2/6 637/2/6 643/2/6
f 635/2/6 636/2/6 643/2/6
f 637/2/6 638/2/6 643/2/6
f 643/2/6 642/2/6 644/2/6
f 644/2/6 642/2/6 645/2/6
f 645/2/6 642/2/6 646/2/6
f 646/2/6 642/2/6 647/2/6
f 647/2/6 642/2/6 648/2/6
f 648/2/6 642/2/6 649/2/6
f 649/2/6 642/2/6 650/2/6
f 644/2/6 645/2/6 651/2/6
f 651/2/6 645/2/6 652/2/6
f 648/2/6 649/2/6 653/2/6
f 653/2/6 649/2/6 654/2/6
f 652/2/6 645/2/6 655/2/6
f 655/2/6 645/2/6 656/2/6
f 648/2/6 653/2/6 657/2/6
f 657/2/6 653/2/6 658/2/6
f 646/2/6 647/2/6 660/2/6
f 660/2/6 647/2/6 661/2/6
f 659/2/6 660/2/6 663/2/6
f 661/2/6 662/2/6 663/2/6
f 660/2/6 661/2/6 663/2/6
f 663/2/6 662/2/6 664/2/6
f 664/2/6 662/2/6 665/2/6
f 665/2/6 662/2/6 666/2/6
f 664/2/6 665/2/6 667/2/6
f 667/2/6 665/2/6 668/2/6
f 668/2/6 665/2/6 669/2/6
f 669/2/6 665/2/6 670/2/6
f 668/2/6 669/2/6 671/2/6
f 671/2/6 669/2/6 672/2/6
